<?xml version="1.0" standalone="no"?>
<!DOCTYPE svg PUBLIC "-//W3C//DTD SVG 20010904//EN"
 "http://www.w3.org/TR/2001/REC-SVG-20010904/DTD/svg10.dtd">
<svg version="1.0" xmlns="http://www.w3.org/2000/svg"
 width="28" height="28" viewBox="0 0 512.000000 512.000000"
 preserveAspectRatio="xMidYMid meet">

<g transform="translate(0.000000,512.000000) scale(0.100000,-0.100000)"
fill="#3B82F6" stroke="none">
<path d="M2370 5114 c-19 -2 -78 -9 -130 -15 -791 -90 -1522 -586 -1924 -1305
-146 -262 -252 -588 -297 -914 -18 -125 -18 -515 0 -640 105 -762 511 -1409
1146 -1826 609 -400 1377 -517 2090 -317 929 260 1646 1043 1819 1987 156 845
-103 1682 -705 2285 -399 398 -879 639 -1449 726 -100 15 -472 28 -550 19z
m395 -304 c498 -46 977 -263 1348 -610 303 -284 542 -695 640 -1101 49 -201
61 -309 61 -539 0 -230 -12 -338 -61 -539 -78 -325 -246 -653 -471 -921 -296
-354 -732 -624 -1183 -733 -201 -49 -309 -61 -539 -61 -231 0 -338 12 -540 61
-396 96 -810 334 -1087 626 -456 480 -682 1125 -623 1772 54 583 345 1143 790
1518 464 390 1069 582 1665 527z"/>
<path d="M1900 3922 c-36 -9 -87 -30 -115 -46 -61 -35 -1010 -977 -1059 -1051
-59 -88 -79 -158 -79 -265 0 -102 19 -171 71 -255 36 -59 976 -999 1046 -1046
215 -145 514 -80 657 142 92 143 92 357 1 499 -16 25 -59 78 -96 118 l-68 72
904 0 c986 0 963 -1 1071 58 164 89 267 295 238 478 -22 141 -119 282 -237
346 -110 59 -85 58 -1072 58 l-904 0 68 73 c122 131 164 225 164 367 0 311
-288 531 -590 452z m196 -301 c23 -10 51 -33 64 -51 25 -35 37 -110 25 -157
-4 -18 -81 -103 -215 -238 -115 -116 -213 -223 -219 -238 -28 -72 5 -153 74
-187 41 -20 62 -20 1128 -20 1189 0 1127 3 1180 -59 58 -69 58 -153 0 -222
-53 -62 9 -59 -1180 -59 -1066 0 -1087 0 -1128 -20 -69 -34 -102 -115 -74
-187 6 -15 104 -122 219 -238 134 -135 211 -220 215 -238 12 -47 0 -122 -25
-157 -43 -60 -135 -85 -203 -56 -18 8 -239 222 -514 497 -530 533 -520 521
-494 612 11 36 78 108 494 526 265 265 496 489 512 497 42 19 93 17 141 -5z"/>
</g>
</svg>
