<?xml version="1.0" standalone="no"?>
<!DOCTYPE svg PUBLIC "-//W3C//DTD SVG 20010904//EN"
 "http://www.w3.org/TR/2001/REC-SVG-20010904/DTD/svg10.dtd">
<svg version="1.0" xmlns="http://www.w3.org/2000/svg"
 width="38" height="38" viewBox="0 0 512.000000 512.000000"
 preserveAspectRatio="xMidYMid meet">

<g transform="translate(0.000000,512.000000) scale(0.100000,-0.100000)"
fill="#ffffff" stroke="none">
<path d="M437 4980 c-172 -22 -331 -171 -367 -345 -7 -34 -9 -720 -8 -2115 l3
-2065 22 -55 c46 -111 142 -207 253 -253 l55 -22 2170 0 2170 0 68 32 c141 67
238 197 257 345 13 98 13 3998 0 4096 -26 198 -178 353 -376 382 -81 11 -4156
12 -4247 0z m4330 -142 c66 -35 116 -85 151 -151 l27 -52 3 -312 3 -313 -2388
3 -2388 2 -3 274 c-3 298 4 354 52 429 34 54 100 108 160 131 50 20 88 20
2191 18 l2140 -2 52 -27z m-2257 -2773 l0 -1835 -1043 2 -1042 3 -67 33 c-76
37 -120 82 -157 162 l-26 55 -3 1708 -2 1707 1170 0 1170 0 0 -1835z m2440
135 l0 -1699 -21 -58 c-28 -72 -94 -144 -168 -180 l-56 -28 -1042 -3 -1043 -2
0 1835 0 1835 1165 0 1165 0 0 -1700z"/>
<path d="M637 4632 c-14 -16 -17 -44 -17 -188 0 -131 3 -175 14 -190 13 -17
30 -19 193 -22 170 -3 180 -2 206 18 l27 21 0 168 c0 135 -3 171 -16 189 -15
21 -20 22 -203 22 -169 0 -190 -2 -204 -18z m303 -187 l0 -95 -105 0 -105 0 0
95 0 95 105 0 105 0 0 -95z"/>
<path d="M1266 4634 c-13 -13 -16 -45 -16 -194 0 -173 1 -179 22 -194 18 -13
55 -16 196 -16 170 0 173 0 197 25 25 24 25 27 25 187 0 225 18 208 -220 208
-158 0 -191 -3 -204 -16z m304 -189 l0 -95 -105 0 -105 0 0 95 0 95 105 0 105
0 0 -95z"/>
<path d="M1896 4634 c-13 -13 -16 -45 -16 -194 0 -173 1 -179 22 -194 18 -13
55 -16 194 -16 234 0 219 -15 219 213 0 133 -3 178 -14 190 -20 25 -381 25
-405 1z m304 -189 l0 -95 -105 0 -105 0 0 95 0 95 105 0 105 0 0 -95z"/>
<path d="M865 3398 c-247 -121 -453 -225 -458 -231 -4 -7 -6 -25 -5 -42 3 -28
12 -34 121 -87 l117 -57 0 -228 c0 -161 4 -235 13 -252 9 -19 91 -62 342 -182
182 -87 336 -158 344 -159 26 0 672 314 687 334 11 16 14 68 14 252 l0 232
118 58 c108 54 117 61 120 89 1 17 -1 36 -6 42 -12 19 -911 453 -935 452 -12
0 -224 -100 -472 -221z m851 -80 c206 -100 371 -185 367 -189 -11 -9 -734
-359 -743 -359 -9 0 -732 350 -743 359 -5 5 718 367 741 371 2 0 171 -82 378
-182z m-670 -537 c150 -72 283 -131 296 -131 13 0 147 60 298 134 l275 133 3
-175 c1 -97 -1 -179 -5 -183 -5 -5 -135 -69 -290 -143 l-282 -135 -288 138
-288 137 -3 183 c-1 100 1 181 5 178 5 -2 130 -63 279 -136z"/>
<path d="M879 1752 c-245 -119 -454 -223 -463 -231 -11 -9 -16 -25 -14 -45 3
-29 12 -36 120 -91 l118 -60 0 -231 c0 -206 2 -234 18 -253 18 -23 654 -331
682 -331 30 0 654 301 678 327 21 24 22 29 22 256 l0 232 118 60 c108 55 117
62 120 91 2 19 -3 36 -15 46 -24 21 -905 448 -923 448 -8 -1 -216 -99 -461
-218z m840 -87 c203 -99 367 -183 363 -187 -12 -12 -729 -358 -742 -358 -13 0
-730 346 -742 358 -7 7 730 372 743 369 4 -1 174 -83 378 -182z m-365 -669
c10 4 142 66 293 139 l273 134 0 -182 0 -182 -289 -138 -290 -137 -290 138
-291 137 0 182 0 182 287 -140 c196 -95 293 -137 307 -133z"/>
<path d="M2897 3462 c-22 -24 -21 -55 1 -75 17 -16 93 -17 890 -17 950 0 902
-3 902 55 0 58 48 55 -904 55 -833 0 -874 -1 -889 -18z"/>
<path d="M2902 3014 c-25 -17 -29 -51 -8 -80 14 -19 36 -19 878 -21 682 -2
868 0 888 10 31 16 39 61 14 88 -17 18 -43 19 -883 19 -768 0 -869 -2 -889
-16z"/>
<path d="M2920 2573 c-41 -15 -51 -62 -20 -93 20 -20 33 -20 883 -20 950 0
907 -3 907 60 0 63 43 60 -900 59 -470 0 -862 -3 -870 -6z"/>
<path d="M2897 2102 c-22 -24 -21 -55 1 -75 17 -16 93 -17 890 -17 950 0 902
-3 902 55 0 58 48 55 -904 55 -833 0 -874 -1 -889 -18z"/>
<path d="M2902 1654 c-26 -18 -29 -56 -6 -78 14 -14 109 -16 893 -16 669 0
880 3 889 12 18 18 14 63 -6 81 -17 16 -93 17 -883 17 -766 0 -867 -2 -887
-16z"/>
<path d="M2920 1213 c-41 -15 -51 -62 -20 -93 20 -20 33 -20 883 -20 950 0
907 -3 907 60 0 63 43 60 -900 59 -470 0 -862 -3 -870 -6z"/>
<path d="M2896 744 c-21 -21 -20 -57 2 -77 17 -16 93 -17 889 -17 830 0 871 1
886 18 20 22 22 63 5 80 -9 9 -220 12 -889 12 -784 0 -879 -2 -893 -16z"/>
</g>
</svg>
