<?xml version="1.0" standalone="no"?>
<!DOCTYPE svg PUBLIC "-//W3C//DTD SVG 20010904//EN"
 "http://www.w3.org/TR/2001/REC-SVG-20010904/DTD/svg10.dtd">
<svg version="1.0" xmlns="http://www.w3.org/2000/svg"
 width="38" height="38" viewBox="0 0 512.000000 512.000000"
 preserveAspectRatio="xMidYMid meet">

<g transform="translate(0.000000,512.000000) scale(0.100000,-0.100000)"
fill="#ffffff" stroke="none">
<path d="M1625 4729 c-70 -20 -91 -52 -182 -274 -69 -170 -85 -219 -84 -257 1
-27 -1 -48 -4 -48 -3 0 -76 32 -163 71 -86 39 -174 78 -196 85 -79 28 -181 12
-250 -41 -33 -25 -336 -470 -336 -494 0 -18 -19 -13 -77 20 -30 17 -56 30 -58
28 -7 -8 -264 -457 -267 -467 -2 -6 123 -84 276 -172 227 -131 281 -159 291
-148 13 14 250 424 260 450 4 11 -7 23 -40 43 -42 24 -45 28 -33 45 7 10 49
71 93 135 43 64 83 119 87 121 11 7 198 -67 198 -77 0 -5 -34 -84 -76 -176
-89 -196 -103 -254 -85 -349 l12 -66 -94 -151 c-109 -177 -115 -181 -208 -126
-30 17 -56 35 -59 39 -11 17 -203 123 -236 130 -43 10 -96 -4 -129 -33 -13
-12 -67 -96 -120 -187 -87 -152 -95 -169 -95 -218 0 -166 191 -253 311 -141
17 16 33 29 35 29 1 0 74 -41 160 -90 87 -50 176 -95 198 -101 63 -17 163 -6
221 24 78 39 113 86 250 322 70 121 128 221 130 223 1 1 98 -49 215 -111 l212
-114 90 -179 c50 -98 105 -208 122 -243 17 -35 45 -85 63 -112 l32 -49 -29 0
c-85 0 -231 -76 -294 -154 -79 -95 -110 -194 -104 -324 5 -102 40 -191 103
-261 l37 -41 -349 0 c-193 0 -375 -4 -404 -10 -140 -26 -270 -127 -333 -260
-29 -61 -31 -72 -31 -186 0 -119 0 -121 38 -196 62 -126 179 -218 315 -247 37
-8 455 -11 1427 -11 l1375 0 0 59 0 59 -37 7 c-102 19 -202 98 -246 193 -17
37 -22 66 -22 137 0 78 4 97 28 147 33 68 90 121 166 157 53 25 65 26 251 29
211 4 230 9 230 59 0 38 -17 61 -52 68 -88 19 -183 96 -229 185 -20 38 -24 60
-24 140 0 80 4 103 25 145 34 69 108 139 177 167 57 23 63 23 518 26 503 3
495 2 495 62 0 33 -23 55 -73 68 -54 15 -119 55 -156 97 -160 182 -86 462 144
539 63 22 85 42 85 76 0 61 6 60 -473 60 l-437 0 0 619 0 619 28 10 c15 5 158
56 317 111 160 56 300 109 313 117 27 18 30 64 4 87 -32 29 -699 309 -729 305
-17 -2 -32 -12 -40 -28 -10 -20 -13 -223 -13 -932 l0 -908 -519 0 c-487 0
-523 -1 -582 -20 -126 -39 -219 -119 -277 -240 -32 -65 -37 -86 -40 -167 -6
-123 19 -207 88 -298 l49 -65 -239 0 c-132 0 -240 2 -240 4 0 3 45 30 100 61
183 104 210 135 210 237 0 42 -6 64 -29 99 -38 61 -87 84 -168 82 l-62 -1
-122 226 c-66 125 -131 238 -143 251 -11 13 -122 72 -246 133 -124 60 -226
111 -228 113 -3 3 76 224 83 233 1 2 72 -25 156 -59 139 -55 160 -61 211 -57
41 3 68 12 93 30 42 29 365 440 400 507 19 37 19 91 1 134 -17 40 -115 133
-161 152 -94 40 -140 11 -305 -187 -72 -87 -135 -158 -140 -158 -8 0 -92 37
-109 47 -2 1 14 20 35 40 35 34 90 132 131 235 8 21 29 46 47 57 18 11 41 30
52 42 20 22 164 272 159 277 -8 9 -593 172 -614 171 -14 0 -39 -5 -56 -10z
m280 -176 c110 -31 202 -58 203 -59 7 -5 -51 -103 -73 -124 -42 -40 -78 -36
-232 24 -142 55 -143 55 -184 41 -23 -9 -44 -13 -47 -11 -5 6 44 132 64 164 9
14 24 22 42 22 14 0 117 -25 227 -57z m-99 -295 l111 -43 -39 -82 c-46 -97
-84 -127 -157 -127 -55 1 -178 59 -210 100 -26 33 -36 86 -25 126 8 27 18 35
74 54 82 29 108 26 246 -28z m-562 -191 c153 -70 281 -128 283 -130 2 -2 -26
-68 -62 -147 -36 -79 -62 -147 -58 -151 5 -3 29 -16 54 -27 l47 -20 62 137
c34 75 66 140 71 145 5 5 85 -25 194 -74 116 -52 189 -80 193 -74 19 29 186
224 191 224 3 -1 36 -29 74 -63 l67 -62 -115 -149 c-63 -82 -120 -153 -127
-158 -28 -17 -77 -5 -253 67 -101 41 -190 75 -197 75 -8 0 -35 -58 -67 -142
-30 -79 -59 -152 -65 -164 -11 -20 -16 -19 -183 61 -95 45 -175 84 -179 87 -3
4 24 75 62 158 39 88 63 155 58 160 -21 20 -396 162 -403 152 -42 -69 -138
-202 -145 -202 -21 0 -137 84 -132 96 3 7 47 77 99 156 105 161 129 182 207
175 30 -3 137 -46 324 -130z m1186 -3 c57 -53 62 -79 25 -114 l-24 -23 -66 58
c-36 32 -65 60 -65 64 0 13 51 61 66 61 8 0 37 -21 64 -46z m-1824 -355 c71
-45 78 -65 31 -87 -52 -25 -117 18 -117 77 0 33 6 51 17 51 2 0 33 -19 69 -41z
m829 -471 c132 -63 320 -155 419 -204 l178 -90 123 -229 122 -229 -99 -58
c-55 -32 -103 -58 -107 -58 -3 0 -45 77 -91 171 -47 93 -96 181 -110 194 -14
13 -173 102 -355 199 -364 194 -393 215 -415 306 -9 39 -9 61 0 99 l12 50 41
-19 c23 -10 150 -69 282 -132z m-332 -222 c18 -13 56 -36 85 -50 28 -15 52
-29 52 -32 0 -18 -250 -435 -276 -460 -39 -37 -109 -59 -161 -49 -33 6 -326
166 -337 184 -4 6 84 165 101 182 5 5 43 -8 87 -31 84 -44 117 -48 174 -25 55
23 75 47 159 182 42 68 78 123 80 123 2 0 19 -11 36 -24z m3683 -317 c-42 -49
-83 -134 -92 -189 l-7 -40 -754 0 -754 0 3 -62 3 -63 751 -3 752 -2 7 -36 c11
-59 50 -138 90 -183 l38 -41 -894 2 -894 3 -56 28 c-31 15 -76 48 -99 73 -170
185 -85 475 159 540 35 10 259 13 914 13 l869 1 -36 -41z m-916 -801 c-38 -51
-75 -131 -87 -190 l-5 -28 -799 0 -799 0 0 -60 0 -60 799 0 799 0 11 -46 c14
-55 60 -146 97 -192 l27 -32 -944 2 -944 3 -56 28 c-66 32 -132 99 -162 165
-33 72 -31 198 4 272 40 85 120 153 209 181 14 4 445 8 957 8 l933 1 -40 -52z
m-798 -738 l468 0 -35 -46 c-46 -60 -59 -86 -80 -157 l-16 -57 -1105 0 -1104
0 0 -65 0 -65 1104 0 1105 0 16 -57 c19 -66 53 -128 97 -179 l30 -34 -1248 2
c-1186 3 -1251 4 -1296 21 -63 25 -137 92 -173 158 -40 74 -47 188 -16 270 39
102 136 186 243 209 25 6 351 8 792 5 412 -3 960 -5 1218 -5z"/>
</g>
</svg>
