<?xml version="1.0" standalone="no"?>
<!DOCTYPE svg PUBLIC "-//W3C//DTD SVG 20010904//EN"
 "http://www.w3.org/TR/2001/REC-SVG-20010904/DTD/svg10.dtd">
<svg version="1.0" xmlns="http://www.w3.org/2000/svg"
 width="38" height="38" viewBox="0 0 512.000000 512.000000"
 preserveAspectRatio="xMidYMid meet">

<g transform="translate(0.000000,512.000000) scale(0.100000,-0.100000)"
fill="#ffffff" stroke="none">
<path d="M1321 4784 c-169 -45 -301 -180 -346 -351 -23 -86 -23 -3660 0 -3746
45 -173 178 -307 350 -352 88 -22 2381 -23 2468 0 179 46 320 193 357 369 7
34 10 135 8 265 -3 230 -5 235 -72 285 -39 29 -133 29 -172 0 -67 -50 -69 -55
-74 -294 -5 -239 -7 -244 -74 -294 -27 -21 -31 -21 -1206 -21 -1175 0 -1179 0
-1206 21 -15 11 -37 33 -48 48 l-21 27 0 1819 0 1819 21 27 c11 15 33 37 48
48 27 21 31 21 1206 21 1175 0 1179 0 1206 -21 67 -50 69 -55 74 -292 3 -137
9 -224 17 -237 35 -62 117 -96 182 -77 51 16 90 48 107 88 20 49 20 419 -1
497 -45 173 -178 307 -350 352 -86 22 -2391 22 -2474 -1z"/>
<path d="M3686 3496 c-73 -44 -103 -127 -72 -199 8 -18 136 -153 285 -302
l271 -270 -787 -5 -788 -5 -38 -24 c-51 -31 -81 -91 -74 -149 5 -50 29 -87 77
-119 l33 -23 791 0 791 0 -272 -272 c-149 -150 -278 -287 -287 -305 -44 -88
17 -207 112 -220 95 -13 78 -27 540 438 235 237 432 442 439 457 17 37 16 76
-2 120 -20 47 -835 867 -882 888 -47 20 -93 17 -137 -10z"/>
</g>
</svg>

