<?xml version="1.0" standalone="no"?>
<!DOCTYPE svg PUBLIC "-//W3C//DTD SVG 20010904//EN"
 "http://www.w3.org/TR/2001/REC-SVG-20010904/DTD/svg10.dtd">
<svg version="1.0" xmlns="http://www.w3.org/2000/svg"
viewBox="0 0 512.000000 512.000000"
  width="40"
 height="40"
 preserveAspectRatio="xMidYMid meet">


<g transform="translate(0.000000,512.000000) scale(0.100000,-0.100000)"
fill="#ffffff" stroke="none">
<path d="M3323 5101 c-17 -11 -38 -30 -45 -43 -10 -18 -14 -230 -18 -1067 l-5
-1044 -140 -38 c-77 -22 -146 -39 -152 -39 -10 0 -13 172 -13 828 0 533 -4
840 -10 864 -6 20 -24 48 -41 62 l-31 26 -308 0 -308 0 -31 -26 c-17 -14 -35
-42 -41 -62 -6 -24 -10 -331 -10 -864 0 -656 -3 -828 -12 -828 -7 0 -76 18
-153 39 l-140 38 -5 580 c-5 539 -6 581 -23 607 -34 52 -61 56 -362 56 -300 0
-323 -3 -363 -55 -21 -26 -22 -38 -22 -221 l0 -193 26 -20 c30 -24 43 -26 77
-10 40 18 47 50 47 204 l0 145 235 0 235 0 0 -525 0 -525 -22 5 c-13 4 -117
32 -233 64 l-210 57 -5 163 c-5 156 -6 164 -29 182 -30 25 -76 24 -101 -1 -18
-18 -20 -33 -20 -161 0 -129 -1 -140 -17 -135 -172 51 -221 50 -267 -5 -24
-28 -26 -38 -26 -131 l0 -101 -42 9 c-24 5 -70 9 -104 9 -51 0 -66 -4 -96 -27
-73 -56 -69 22 -66 -1136 l3 -1039 28 -36 c15 -20 37 -42 48 -47 25 -14 777
-220 802 -220 26 0 67 45 67 73 0 57 -14 63 -416 173 -208 57 -380 104 -381
104 -2 0 -3 452 -3 1005 0 900 2 1005 15 1005 9 0 45 -7 80 -16 l65 -16 0
-897 c0 -870 1 -897 20 -928 10 -17 27 -36 37 -41 10 -5 360 -103 778 -217
418 -113 783 -213 811 -221 51 -15 52 -15 58 -64 7 -51 40 -90 76 -90 36 0 69
39 76 90 6 49 7 49 58 64 28 8 393 108 811 221 418 114 768 212 778 217 10 5
27 24 37 41 19 31 20 55 20 575 0 529 0 542 -20 562 -25 25 -71 26 -101 1
l-24 -19 -5 -518 -5 -518 -760 -207 c-418 -115 -766 -208 -772 -209 -10 0 -13
208 -13 1008 l0 1007 775 211 775 210 0 -337 c0 -358 2 -378 47 -398 34 -16
47 -14 77 10 l26 20 0 214 0 213 65 16 c35 9 71 16 80 16 13 0 15 -105 15
-1004 l0 -1005 -52 -15 c-29 -8 -395 -108 -813 -221 -418 -114 -771 -214 -785
-224 -30 -22 -47 -54 -55 -104 -3 -20 -16 -46 -27 -57 -20 -18 -36 -20 -206
-20 -101 0 -192 4 -202 10 -20 10 -40 59 -40 96 0 13 -12 38 -28 55 -25 28
-52 38 -317 110 -160 43 -299 79 -311 79 -30 0 -64 -41 -64 -77 0 -57 -13 -52
541 -203 32 -9 37 -15 43 -48 9 -58 58 -119 119 -148 50 -23 61 -24 257 -24
196 0 207 1 257 24 60 29 110 90 119 147 6 36 10 39 58 53 28 8 384 105 791
216 407 111 754 208 771 215 17 7 44 30 60 51 l29 37 3 1039 c3 1158 7 1080
-66 1136 -30 23 -45 27 -96 27 -34 0 -80 -4 -103 -9 l-43 -9 0 101 c0 93 -2
103 -26 131 -47 56 -81 57 -266 4 -17 -5 -18 44 -18 936 l0 941 -34 38 -34 37
-304 3 c-286 2 -305 1 -335 -17z m555 -1058 l-3 -927 -207 -57 c-114 -31 -219
-60 -233 -63 l-25 -6 0 990 0 990 235 0 235 0 -2 -927z m-1078 -381 l0 -839
-120 -33 -120 -32 -120 32 -120 33 0 839 0 838 240 0 240 0 0 -838z m-320
-2044 c0 -800 -3 -1008 -12 -1008 -7 1 -355 94 -773 209 l-760 207 -3 1011 -2
1010 775 -211 775 -211 0 -1007z"/>
<path d="M1565 2595 c-14 -13 -25 -35 -25 -48 0 -56 17 -63 360 -157 179 -49
337 -90 353 -90 58 0 91 85 48 124 -18 16 -654 196 -694 196 -10 0 -29 -11
-42 -25z"/>
<path d="M1110 2270 c-25 -25 -26 -74 -1 -99 11 -11 39 -25 63 -31 24 -7 272
-74 553 -151 280 -76 520 -139 532 -139 56 0 85 87 43 125 -23 21 -1085 315
-1137 315 -20 0 -41 -8 -53 -20z"/>
<path d="M1116 1809 c-34 -27 -36 -77 -3 -106 15 -13 199 -68 585 -173 l563
-154 27 21 c41 31 43 101 2 123 -21 12 -1114 310 -1134 310 -7 0 -25 -9 -40
-21z"/>
<path d="M1110 1340 c-25 -25 -26 -71 -2 -99 13 -16 139 -54 568 -171 304 -82
564 -150 578 -150 57 0 90 85 47 124 -20 18 -1097 316 -1143 316 -16 0 -37 -9
-48 -20z"/>
<path d="M3381 2590 c-313 -86 -552 -156 -562 -166 -43 -39 -10 -124 47 -124
14 0 274 68 578 150 429 117 555 155 569 171 40 49 7 120 -55 118 -18 0 -278
-67 -577 -149z"/>
<path d="M3377 2140 c-319 -88 -546 -155 -558 -166 -41 -37 -11 -124 43 -124
18 0 853 223 1077 287 64 18 91 43 91 83 0 42 -31 70 -77 69 -21 0 -280 -68
-576 -149z"/>
<path d="M3381 1675 c-414 -113 -558 -157 -568 -171 -22 -30 -12 -84 19 -107
l27 -20 563 153 c395 107 570 159 586 173 46 42 11 129 -52 126 -11 -1 -270
-70 -575 -154z"/>
<path d="M3161 1150 c-180 -50 -332 -97 -342 -106 -43 -39 -10 -124 47 -124
28 0 648 166 677 182 27 14 40 57 27 89 -11 25 -48 50 -73 48 -7 0 -158 -41
-336 -89z"/>
</g>
</svg>

