<?xml version="1.0" standalone="no"?>
<!DOCTYPE svg PUBLIC "-//W3C//DTD SVG 20010904//EN"
 "http://www.w3.org/TR/2001/REC-SVG-20010904/DTD/svg10.dtd">
<svg version="1.0" xmlns="http://www.w3.org/2000/svg"
 width="38" height="38" viewBox="0 0 512.000000 512.000000"
 preserveAspectRatio="xMidYMid meet">

<g transform="translate(0.000000,512.000000) scale(0.100000,-0.100000)"
fill="#ffffff" stroke="none">
<path d="M0 2555 l0 -2225 2560 0 2560 0 0 2225 0 2225 -1057 -2 -1058 -3 -80
-28 c-113 -40 -206 -98 -292 -182 l-73 -72 -73 72 c-83 83 -178 142 -292 182
l-80 28 -1057 3 -1058 2 0 -2225z m2101 1905 c149 -50 254 -164 294 -315 13
-52 15 -241 15 -1532 0 -810 -2 -1473 -5 -1473 -2 0 -19 9 -37 20 -18 11 -69
33 -113 48 l-80 27 -937 3 -938 3 0 1619 0 1620 870 0 c849 0 872 0 931 -20z
m2719 -1600 l0 -1619 -937 -3 -938 -3 -80 -28 c-44 -16 -95 -37 -113 -48 -18
-10 -35 -19 -38 -19 -2 0 -4 663 -4 1473 0 1608 -3 1529 57 1639 30 55 101
130 154 164 21 13 64 32 96 43 56 20 84 20 931 21 l872 0 0 -1620z m-2669
-1936 c103 -29 191 -108 233 -208 9 -21 16 -49 16 -62 l0 -24 -1050 0 -1050 0
0 155 0 155 898 0 c786 0 905 -2 953 -16z m2669 -139 l0 -155 -1050 0 -1050 0
0 24 c0 60 67 166 137 216 99 72 56 69 1061 69 l902 1 0 -155z"/>
<path d="M972 3553 c-274 -755 -256 -703 -249 -709 6 -7 270 -104 273 -101 1
1 18 48 39 105 l37 102 283 0 283 0 38 -104 38 -104 135 47 c81 29 137 54 138
62 1 8 -105 311 -236 674 l-237 660 -156 3 -155 2 -231 -637z m471 -58 c42
-115 78 -218 82 -227 7 -17 -5 -18 -164 -18 -130 0 -171 3 -171 13 0 27 165
465 171 454 4 -7 41 -106 82 -222z"/>
<path d="M600 2290 l0 -150 755 0 755 0 0 150 0 150 -755 0 -755 0 0 -150z"/>
<path d="M600 1690 l0 -150 755 0 755 0 0 150 0 150 -755 0 -755 0 0 -150z"/>
<path d="M3270 3469 l0 -720 318 3 c303 3 319 4 374 26 82 33 146 80 199 146
63 78 91 151 97 257 7 133 -27 231 -112 326 l-46 51 28 58 c24 52 27 71 27
159 0 92 -3 106 -32 167 -38 81 -104 155 -171 191 -92 50 -143 57 -424 57
l-258 0 0 -721z m525 407 c58 -25 82 -99 49 -155 -27 -47 -51 -55 -166 -59
l-108 -4 0 116 0 116 95 0 c60 0 108 -5 130 -14z m93 -536 c101 -62 94 -218
-13 -270 -35 -17 -62 -20 -173 -20 l-132 0 0 155 0 155 143 0 c124 0 146 -3
175 -20z"/>
<path d="M3010 2290 l0 -150 755 0 755 0 0 150 0 150 -755 0 -755 0 0 -150z"/>
<path d="M3010 1690 l0 -150 755 0 755 0 0 150 0 150 -755 0 -755 0 0 -150z"/>
</g>
</svg>
